<?xml version="1.0" encoding="UTF-8"?>
<svg id="Camada_2" data-name="Camada 2" xmlns="http://www.w3.org/2000/svg" viewBox="0 0 674.12 182.25">
  <defs>
    <style>
      .cls-1 {
        stroke-width: 0px;
      }

      .cls-1, .cls-2 {
        fill: #0f0f13;
      }

      .cls-2 {
        font-family: Metalista-Black, Metalista;
        font-size: 116.02px;
        font-weight: 800;
      }
    </style>
  </defs>
  <g id="Muninn">
    <g>
      <path class="cls-1" d="M83.44,134.59c4.12,9.79,10.74,18.13,16.46,27-.24.28-.49.55-.73.83-1.8-1.05-3.8-1.87-5.36-3.2-5.81-4.95-9.59-11.23-11.59-18.6-.21-.77-.89-1.42-1.65-1.98,2.16,10.03,8.39,18.45,10.88,28.17-2.18-1.36-6.99-7.51-8.47-10.73-1.97-4.29-4.05-8.53-6.08-12.79-.35.14-.7.28-1.05.43,1.75,4.65,3.1,9.49,5.35,13.88,2.23,4.35,5.36,8.24,8.09,12.34-.14.19-.28.38-.42.57-.93-.47-1.96-.82-2.78-1.44-6.72-5.06-13.34-10.26-20.11-15.24-7.69-5.65-15.32-11.43-23.38-16.53-3.55-2.25-6.21-5.11-9.2-7.85-5.48-5-11.8-9.08-17.35-14.01-4.65-4.13-8.73-8.89-12.99-13.44-.81-.87-1.32-2.03-1.95-3.07-1.71-2.82-1.43-5.37.58-8.06,7.32-9.79,14.06-20.05,21.89-29.41,6.35-7.58,10.96-15.95,15.07-24.77,2.24-4.82,4.27-9.81,7.11-14.26,5.17-8.1,12.33-14.01,21.42-17.52C76.6,1.27,86.25-.85,96.36.33c5.37.62,10.4,2.03,14.81,5.81,4.26,3.65,9.81,5.2,15.31,6.29,10.13,2.02,20.29,3.95,29.76,8.31,2.87,1.32,5.53,3.1,8.29,4.66-.11.23-.23.46-.34.69-1.96-.33-3.91-.73-5.88-.98-11.23-1.45-22.01,1.46-32.85,3.61-3.16.63-6.22,1.72-9.35,2.47-6.45,1.52-11.04,5.58-15.23,10.47-8.24,9.62-22.26,12.61-33.79,7.35-3.78-1.72-6.1-4.82-6.51-9-.38-3.88,1.26-6.99,4.65-8.93,1.33-.76,2.98-.98,4.59-1.48-.22-1.59-1.53-1.92-2.93-2.07-5.5-.57-10.6,2.63-12.71,7.77-1.89,4.6-1.81,9.27-.08,13.73,2.36,6.09,4.99,12.1,7.9,17.95,4.06,8.18,8.39,16.23,12.78,24.24,2.47,4.51,5.75,8.41,10.13,11.28,4.66,3.06,9.21,6.28,13.96,9.18,6.75,4.13,12.31,9.55,16.88,15.86,7.48,10.34,14.52,21,21.86,31.43,5.44,7.73,11.08,15.32,16.85,23.28-1.17-.94-2.23-1.57-3.01-2.45-3.44-3.87-7.06-7.62-10.12-11.79-4.58-6.23-10.8-9.95-17.81-12.44-9.88-3.51-20.07-6.18-29.2-11.58-.38-.23-.81-.36-1.83-.8,4.27,5.1,10.02,7.98,12.8,14.2-.97-.29-1.52-.34-1.94-.59-5.86-3.56-11.2-7.54-13.99-14.26-1.24-2.99-3.51-5.56-5.31-8.31-.2.12-.4.24-.61.35ZM73.78,148.86c-.37.14-.74.29-1.1.43.89,2.84,1.79,5.68,2.68,8.51.43-.15.86-.29,1.3-.44l-2.87-8.5Z"/>
      <text class="cls-2" transform="translate(128.87 128.83)"><tspan x="0" y="0">Muninn Library</tspan></text>
    </g>
  </g>
</svg>